<svg xmlns="http://www.w3.org/2000/svg" viewBox="0 0 220 52" fill="none">
  <defs>
    <linearGradient id="iconGradD" x1="0" y1="0" x2="1" y2="1">
      <stop offset="0%" stop-color="#22d3ee"/>
      <stop offset="100%" stop-color="#818cf8"/>
    </linearGradient>
    <linearGradient id="dotGradD" x1="0" y1="0" x2="1" y2="1">
      <stop offset="0%" stop-color="#67e8f9"/>
      <stop offset="100%" stop-color="#a5b4fc"/>
    </linearGradient>
  </defs>

  <!-- Icon -->
  <g>
    <path d="M26 4 L44 14 L44 34 L26 44 L8 34 L8 14 Z"
          stroke="url(#iconGradD)" stroke-width="2.5" fill="none" stroke-linejoin="round"/>
    <path d="M26 10 L38 17 L38 31 L26 38 L14 31 L14 17 Z"
          fill="url(#iconGradD)" fill-opacity="0.12"/>
    <circle cx="26" cy="24" r="3.5" fill="url(#iconGradD)"/>

    <line x1="26" y1="24" x2="26" y2="13" stroke="url(#iconGradD)" stroke-width="1.5" stroke-linecap="round"/>
    <circle cx="26" cy="12" r="2" fill="url(#dotGradD)"/>

    <line x1="26" y1="24" x2="26" y2="35" stroke="url(#iconGradD)" stroke-width="1.5" stroke-linecap="round"/>
    <circle cx="26" cy="36" r="2" fill="url(#dotGradD)"/>

    <line x1="26" y1="24" x2="35" y2="18.5" stroke="url(#iconGradD)" stroke-width="1.5" stroke-linecap="round"/>
    <circle cx="36.5" cy="17.5" r="2" fill="url(#dotGradD)"/>

    <line x1="26" y1="24" x2="35" y2="29.5" stroke="url(#iconGradD)" stroke-width="1.5" stroke-linecap="round"/>
    <circle cx="36.5" cy="30.5" r="2" fill="url(#dotGradD)"/>

    <line x1="26" y1="24" x2="17" y2="18.5" stroke="url(#iconGradD)" stroke-width="1.5" stroke-linecap="round"/>
    <circle cx="15.5" cy="17.5" r="2" fill="url(#dotGradD)"/>

    <line x1="26" y1="24" x2="17" y2="29.5" stroke="url(#iconGradD)" stroke-width="1.5" stroke-linecap="round"/>
    <circle cx="15.5" cy="30.5" r="2" fill="url(#dotGradD)"/>
  </g>

  <!-- Wordmark (white for dark bg) -->
  <text x="58" y="32"
        font-family="'Inter', 'SF Pro Display', -apple-system, BlinkMacSystemFont, sans-serif"
        font-size="22" font-weight="600" letter-spacing="-0.5"
        fill="#f1f5f9">Cogni</text>

  <text x="114" y="32"
        font-family="'Inter', 'SF Pro Display', -apple-system, BlinkMacSystemFont, sans-serif"
        font-size="22" font-weight="700" letter-spacing="-0.5"
        fill="url(#iconGradD)">Base</text>

  <text x="59" y="44"
        font-family="'Inter', 'SF Pro Display', -apple-system, BlinkMacSystemFont, sans-serif"
        font-size="8.5" font-weight="400" letter-spacing="1.8"
        fill="#64748b">KNOWLEDGE · AI</text>
</svg>
